<mxfile host="app.diagrams.net" agent="Mozilla/5.0 (Windows NT 10.0; Win64; x64) AppleWebKit/537.36 (KHTML, like Gecko) Chrome/130.0.0.0 Safari/537.36" version="24.8.3">
  <diagram name="Página-1" id="F0eF4O_PR1IcMT1CeqN9">
    <mxGraphModel grid="1" page="1" gridSize="35" guides="0" tooltips="1" connect="1" arrows="0" fold="1" pageScale="1" pageWidth="690" pageHeight="980" math="0" shadow="0">
      <root>
        <mxCell id="0" />
        <mxCell id="1" parent="0" />
        <mxCell id="SR8djW1KOHRjo0UpwQZx-2" value="" style="rounded=1;whiteSpace=wrap;html=1;fillColor=none;" vertex="1" parent="1">
          <mxGeometry x="210" y="-210" width="1365" height="595" as="geometry" />
        </mxCell>
        <mxCell id="SR8djW1KOHRjo0UpwQZx-5" value="" style="rounded=1;whiteSpace=wrap;html=1;fillColor=none;" vertex="1" parent="1">
          <mxGeometry x="175" y="385" width="1400" height="2240" as="geometry" />
        </mxCell>
        <mxCell id="f158t_sfv2qWzC_w8PwX-10" style="rounded=1;orthogonalLoop=1;jettySize=auto;html=1;exitX=1;exitY=0.3333333333333333;exitDx=0;exitDy=0;exitPerimeter=0;entryX=0;entryY=0.5;entryDx=0;entryDy=0;" edge="1" parent="1" source="paehrk6cWvg2qVC-d318-37" target="f158t_sfv2qWzC_w8PwX-4">
          <mxGeometry relative="1" as="geometry" />
        </mxCell>
        <mxCell id="paehrk6cWvg2qVC-d318-3" style="edgeStyle=none;rounded=1;orthogonalLoop=1;jettySize=auto;html=1;" edge="1" parent="1" target="paehrk6cWvg2qVC-d318-2">
          <mxGeometry relative="1" as="geometry">
            <mxPoint x="245" y="70" as="sourcePoint" />
          </mxGeometry>
        </mxCell>
        <mxCell id="paehrk6cWvg2qVC-d318-10" style="edgeStyle=none;rounded=1;orthogonalLoop=1;jettySize=auto;html=1;exitX=1;exitY=0.3333333333333333;exitDx=0;exitDy=0;exitPerimeter=0;entryX=0;entryY=0.5;entryDx=0;entryDy=0;" edge="1" parent="1" source="paehrk6cWvg2qVC-d318-37" target="f158t_sfv2qWzC_w8PwX-52">
          <mxGeometry relative="1" as="geometry" />
        </mxCell>
        <mxCell id="paehrk6cWvg2qVC-d318-11" style="edgeStyle=none;rounded=1;orthogonalLoop=1;jettySize=auto;html=1;entryX=0;entryY=0.5;entryDx=0;entryDy=0;exitX=1;exitY=0.3333333333333333;exitDx=0;exitDy=0;exitPerimeter=0;" edge="1" parent="1" source="paehrk6cWvg2qVC-d318-37" target="f158t_sfv2qWzC_w8PwX-3">
          <mxGeometry relative="1" as="geometry">
            <mxPoint x="333" y="86" as="sourcePoint" />
          </mxGeometry>
        </mxCell>
        <mxCell id="paehrk6cWvg2qVC-d318-13" style="edgeStyle=none;rounded=1;orthogonalLoop=1;jettySize=auto;html=1;entryX=0;entryY=0.5;entryDx=0;entryDy=0;exitX=1;exitY=0.3333333333333333;exitDx=0;exitDy=0;exitPerimeter=0;" edge="1" parent="1" source="paehrk6cWvg2qVC-d318-37" target="f158t_sfv2qWzC_w8PwX-53">
          <mxGeometry relative="1" as="geometry">
            <mxPoint x="350" y="175" as="sourcePoint" />
          </mxGeometry>
        </mxCell>
        <mxCell id="paehrk6cWvg2qVC-d318-15" style="edgeStyle=none;rounded=1;orthogonalLoop=1;jettySize=auto;html=1;entryX=0;entryY=0.5;entryDx=0;entryDy=0;exitX=1;exitY=0.3333333333333333;exitDx=0;exitDy=0;exitPerimeter=0;" edge="1" parent="1" target="f158t_sfv2qWzC_w8PwX-12" source="f158t_sfv2qWzC_w8PwX-1">
          <mxGeometry relative="1" as="geometry">
            <mxPoint x="210" y="560" as="sourcePoint" />
          </mxGeometry>
        </mxCell>
        <mxCell id="paehrk6cWvg2qVC-d318-26" style="edgeStyle=none;rounded=1;orthogonalLoop=1;jettySize=auto;html=1;exitX=1;exitY=0.3333333333333333;exitDx=0;exitDy=0;exitPerimeter=0;entryX=0;entryY=0.5;entryDx=0;entryDy=0;" edge="1" parent="1" source="f158t_sfv2qWzC_w8PwX-1" target="paehrk6cWvg2qVC-d318-17">
          <mxGeometry relative="1" as="geometry" />
        </mxCell>
        <mxCell id="paehrk6cWvg2qVC-d318-31" style="edgeStyle=none;rounded=1;orthogonalLoop=1;jettySize=auto;html=1;entryX=0;entryY=0.5;entryDx=0;entryDy=0;exitX=1;exitY=0.3333333333333333;exitDx=0;exitDy=0;exitPerimeter=0;" edge="1" parent="1" source="f158t_sfv2qWzC_w8PwX-1" target="paehrk6cWvg2qVC-d318-30">
          <mxGeometry relative="1" as="geometry">
            <mxPoint x="245" y="560" as="sourcePoint" />
          </mxGeometry>
        </mxCell>
        <mxCell id="paehrk6cWvg2qVC-d318-33" style="edgeStyle=none;rounded=1;orthogonalLoop=1;jettySize=auto;html=1;exitX=1;exitY=0.3333333333333333;exitDx=0;exitDy=0;exitPerimeter=0;entryX=0;entryY=0.5;entryDx=0;entryDy=0;" edge="1" parent="1" source="f158t_sfv2qWzC_w8PwX-1" target="paehrk6cWvg2qVC-d318-25">
          <mxGeometry relative="1" as="geometry" />
        </mxCell>
        <mxCell id="paehrk6cWvg2qVC-d318-45" style="edgeStyle=none;rounded=1;orthogonalLoop=1;jettySize=auto;html=1;exitX=0;exitY=1;exitDx=0;exitDy=0;exitPerimeter=0;entryX=0;entryY=0.5;entryDx=0;entryDy=0;" edge="1" parent="1" source="f158t_sfv2qWzC_w8PwX-1" target="paehrk6cWvg2qVC-d318-44">
          <mxGeometry relative="1" as="geometry" />
        </mxCell>
        <mxCell id="f158t_sfv2qWzC_w8PwX-1" value="Aluno" style="shape=umlActor;verticalLabelPosition=bottom;verticalAlign=top;html=1;outlineConnect=0;rounded=1;" vertex="1" parent="1">
          <mxGeometry x="105" y="507.5" width="70" height="157.5" as="geometry" />
        </mxCell>
        <mxCell id="f158t_sfv2qWzC_w8PwX-9" style="rounded=1;orthogonalLoop=1;jettySize=auto;html=1;entryX=0;entryY=0.5;entryDx=0;entryDy=0;dashed=1;endArrow=none;endFill=0;" edge="1" parent="1" source="SR8djW1KOHRjo0UpwQZx-6" target="f158t_sfv2qWzC_w8PwX-7">
          <mxGeometry relative="1" as="geometry" />
        </mxCell>
        <mxCell id="f158t_sfv2qWzC_w8PwX-3" value="Consultar grade" style="ellipse;whiteSpace=wrap;html=1;shadow=0;rounded=1;" vertex="1" parent="1">
          <mxGeometry x="525" y="70" width="132.5" height="80" as="geometry" />
        </mxCell>
        <mxCell id="f158t_sfv2qWzC_w8PwX-8" style="rounded=1;orthogonalLoop=1;jettySize=auto;html=1;exitX=1;exitY=0.5;exitDx=0;exitDy=0;dashed=1;endArrow=none;endFill=0;entryX=0.221;entryY=0.919;entryDx=0;entryDy=0;entryPerimeter=0;" edge="1" parent="1" source="f158t_sfv2qWzC_w8PwX-4" target="f158t_sfv2qWzC_w8PwX-7">
          <mxGeometry relative="1" as="geometry" />
        </mxCell>
        <mxCell id="f158t_sfv2qWzC_w8PwX-4" value="Rematricular" style="ellipse;whiteSpace=wrap;html=1;shadow=0;rounded=1;" vertex="1" parent="1">
          <mxGeometry x="590" y="280" width="125" height="90" as="geometry" />
        </mxCell>
        <mxCell id="f158t_sfv2qWzC_w8PwX-7" value="Fazer loogin" style="ellipse;whiteSpace=wrap;html=1;shadow=0;rounded=1;fillColor=#f8cecc;strokeColor=#b85450;" vertex="1" parent="1">
          <mxGeometry x="1260" y="175" width="210" height="105" as="geometry" />
        </mxCell>
        <mxCell id="paehrk6cWvg2qVC-d318-16" style="edgeStyle=none;rounded=1;orthogonalLoop=1;jettySize=auto;html=1;exitX=1;exitY=0.5;exitDx=0;exitDy=0;entryX=0;entryY=0.5;entryDx=0;entryDy=0;dashed=1;" edge="1" parent="1" source="f158t_sfv2qWzC_w8PwX-12" target="paehrk6cWvg2qVC-d318-1">
          <mxGeometry relative="1" as="geometry" />
        </mxCell>
        <mxCell id="paehrk6cWvg2qVC-d318-43" value="&amp;lt;&amp;lt;Extends&amp;gt;&amp;gt;" style="edgeLabel;html=1;align=center;verticalAlign=middle;resizable=0;points=[];rounded=1;" connectable="0" vertex="1" parent="paehrk6cWvg2qVC-d318-16">
          <mxGeometry x="-0.1953" y="-2" relative="1" as="geometry">
            <mxPoint as="offset" />
          </mxGeometry>
        </mxCell>
        <mxCell id="f158t_sfv2qWzC_w8PwX-12" value="Consultar secretaria" style="ellipse;whiteSpace=wrap;html=1;shadow=0;rounded=1;" vertex="1" parent="1">
          <mxGeometry x="590" y="410" width="120" height="80" as="geometry" />
        </mxCell>
        <mxCell id="paehrk6cWvg2qVC-d318-12" style="edgeStyle=none;rounded=1;orthogonalLoop=1;jettySize=auto;html=1;exitX=1;exitY=0.5;exitDx=0;exitDy=0;dashed=1;endArrow=none;endFill=0;" edge="1" parent="1" source="1Kpg1wvoOpG3iVUdZpvH-7" target="f158t_sfv2qWzC_w8PwX-7">
          <mxGeometry relative="1" as="geometry" />
        </mxCell>
        <mxCell id="paehrk6cWvg2qVC-d318-20" value="&amp;lt;&amp;lt;Include&amp;gt;&amp;gt;" style="edgeLabel;html=1;align=center;verticalAlign=middle;resizable=0;points=[];rounded=1;" vertex="1" connectable="0" parent="paehrk6cWvg2qVC-d318-12">
          <mxGeometry x="0.0989" y="4" relative="1" as="geometry">
            <mxPoint as="offset" />
          </mxGeometry>
        </mxCell>
        <mxCell id="f158t_sfv2qWzC_w8PwX-52" value="Consultar Calendario" style="ellipse;whiteSpace=wrap;html=1;shadow=0;rounded=1;" vertex="1" parent="1">
          <mxGeometry x="605" y="-15" width="120" height="85" as="geometry" />
        </mxCell>
        <mxCell id="f158t_sfv2qWzC_w8PwX-53" value="Consultar horarios" style="ellipse;whiteSpace=wrap;html=1;shadow=0;rounded=1;" vertex="1" parent="1">
          <mxGeometry x="595" y="175" width="120" height="80" as="geometry" />
        </mxCell>
        <mxCell id="paehrk6cWvg2qVC-d318-1" value="Central de soluções" style="ellipse;whiteSpace=wrap;html=1;shadow=0;rounded=1;" vertex="1" parent="1">
          <mxGeometry x="835" y="410" width="120" height="80" as="geometry" />
        </mxCell>
        <mxCell id="paehrk6cWvg2qVC-d318-6" style="edgeStyle=none;rounded=1;orthogonalLoop=1;jettySize=auto;html=1;exitX=1;exitY=0;exitDx=0;exitDy=0;entryX=0;entryY=0.5;entryDx=0;entryDy=0;dashed=1;" edge="1" parent="1" source="paehrk6cWvg2qVC-d318-2" target="paehrk6cWvg2qVC-d318-4">
          <mxGeometry relative="1" as="geometry" />
        </mxCell>
        <mxCell id="paehrk6cWvg2qVC-d318-38" value="&amp;lt;&amp;lt;Extends&amp;gt;&amp;gt;" style="edgeLabel;html=1;align=center;verticalAlign=middle;resizable=0;points=[];rounded=1;" connectable="0" vertex="1" parent="paehrk6cWvg2qVC-d318-6">
          <mxGeometry x="-0.1094" y="3" relative="1" as="geometry">
            <mxPoint x="1" as="offset" />
          </mxGeometry>
        </mxCell>
        <mxCell id="paehrk6cWvg2qVC-d318-7" style="edgeStyle=none;rounded=1;orthogonalLoop=1;jettySize=auto;html=1;exitX=1;exitY=1;exitDx=0;exitDy=0;entryX=0;entryY=0.5;entryDx=0;entryDy=0;dashed=1;" edge="1" parent="1" source="paehrk6cWvg2qVC-d318-2" target="paehrk6cWvg2qVC-d318-5">
          <mxGeometry relative="1" as="geometry" />
        </mxCell>
        <mxCell id="paehrk6cWvg2qVC-d318-41" value="&lt;span style=&quot;color: rgba(0, 0, 0, 0); font-family: monospace; font-size: 0px; text-align: start; background-color: rgb(251, 251, 251);&quot;&gt;%3CmxGraphModel%3E%3Croot%3E%3CmxCell%20id%3D%220%22%2F%3E%3CmxCell%20id%3D%221%22%20parent%3D%220%22%2F%3E%3CmxCell%20id%3D%222%22%20value%3D%22%26amp%3Blt%3B%26amp%3Blt%3BExtends%26amp%3Bgt%3B%26amp%3Bgt%3B%22%20style%3D%22edgeLabel%3Bhtml%3D1%3Balign%3Dcenter%3BverticalAlign%3Dmiddle%3Bresizable%3D0%3Bpoints%3D%5B%5D%3B%22%20vertex%3D%221%22%20connectable%3D%220%22%20parent%3D%221%22%3E%3CmxGeometry%20x%3D%22770.1787483259486%22%20y%3D%22-117.45040302723623%22%20as%3D%22geometry%22%2F%3E%3C%2FmxCell%3E%3C%2Froot%3E%3C%2FmxGraphModel%3E&amp;lt;&amp;lt;&lt;/span&gt;" style="edgeLabel;html=1;align=center;verticalAlign=middle;resizable=0;points=[];rounded=1;" connectable="0" vertex="1" parent="paehrk6cWvg2qVC-d318-7">
          <mxGeometry x="-0.0324" y="2" relative="1" as="geometry">
            <mxPoint as="offset" />
          </mxGeometry>
        </mxCell>
        <mxCell id="paehrk6cWvg2qVC-d318-42" value="&amp;lt;&amp;lt;Extends&amp;gt;&amp;gt;" style="edgeLabel;html=1;align=center;verticalAlign=middle;resizable=0;points=[];rounded=1;" connectable="0" vertex="1" parent="paehrk6cWvg2qVC-d318-7">
          <mxGeometry x="0.0284" y="-1" relative="1" as="geometry">
            <mxPoint as="offset" />
          </mxGeometry>
        </mxCell>
        <mxCell id="paehrk6cWvg2qVC-d318-2" value="Consultar aluno" style="ellipse;whiteSpace=wrap;html=1;shadow=0;rounded=1;" vertex="1" parent="1">
          <mxGeometry x="595" y="-105" width="140" height="70" as="geometry" />
        </mxCell>
        <mxCell id="paehrk6cWvg2qVC-d318-8" style="edgeStyle=none;rounded=1;orthogonalLoop=1;jettySize=auto;html=1;exitX=1;exitY=1;exitDx=0;exitDy=0;entryX=0.385;entryY=0.036;entryDx=0;entryDy=0;entryPerimeter=0;dashed=1;endArrow=none;endFill=0;" edge="1" parent="1" source="paehrk6cWvg2qVC-d318-4" target="f158t_sfv2qWzC_w8PwX-7">
          <mxGeometry relative="1" as="geometry">
            <mxPoint x="1330" y="140" as="targetPoint" />
          </mxGeometry>
        </mxCell>
        <mxCell id="paehrk6cWvg2qVC-d318-18" value="&amp;lt;&amp;lt;Include&amp;gt;&amp;gt;" style="edgeLabel;html=1;align=center;verticalAlign=middle;resizable=0;points=[];rounded=1;" vertex="1" connectable="0" parent="paehrk6cWvg2qVC-d318-8">
          <mxGeometry x="-0.118" y="5" relative="1" as="geometry">
            <mxPoint y="1" as="offset" />
          </mxGeometry>
        </mxCell>
        <mxCell id="paehrk6cWvg2qVC-d318-4" value="Consultar faltas" style="ellipse;whiteSpace=wrap;html=1;shadow=0;rounded=1;" vertex="1" parent="1">
          <mxGeometry x="840" y="-175" width="115" height="70" as="geometry" />
        </mxCell>
        <mxCell id="paehrk6cWvg2qVC-d318-9" style="edgeStyle=none;rounded=1;orthogonalLoop=1;jettySize=auto;html=1;exitX=1;exitY=1;exitDx=0;exitDy=0;dashed=1;endArrow=none;endFill=0;" edge="1" parent="1" source="paehrk6cWvg2qVC-d318-5" target="f158t_sfv2qWzC_w8PwX-7">
          <mxGeometry relative="1" as="geometry" />
        </mxCell>
        <mxCell id="paehrk6cWvg2qVC-d318-19" value="&amp;lt;&amp;lt;Include&amp;gt;&amp;gt;" style="edgeLabel;html=1;align=center;verticalAlign=middle;resizable=0;points=[];rounded=1;" vertex="1" connectable="0" parent="paehrk6cWvg2qVC-d318-9">
          <mxGeometry x="-0.318" y="1" relative="1" as="geometry">
            <mxPoint x="1" as="offset" />
          </mxGeometry>
        </mxCell>
        <mxCell id="paehrk6cWvg2qVC-d318-5" value="Consultar notas" style="ellipse;whiteSpace=wrap;html=1;shadow=0;rounded=1;" vertex="1" parent="1">
          <mxGeometry x="840" y="-70" width="115" height="70" as="geometry" />
        </mxCell>
        <mxCell id="paehrk6cWvg2qVC-d318-14" style="edgeStyle=none;rounded=1;orthogonalLoop=1;jettySize=auto;html=1;exitX=1;exitY=0.5;exitDx=0;exitDy=0;entryX=0.02;entryY=0.684;entryDx=0;entryDy=0;entryPerimeter=0;dashed=1;endArrow=none;endFill=0;" edge="1" parent="1" source="f158t_sfv2qWzC_w8PwX-53" target="f158t_sfv2qWzC_w8PwX-7">
          <mxGeometry relative="1" as="geometry" />
        </mxCell>
        <mxCell id="1Kpg1wvoOpG3iVUdZpvH-12" style="rounded=0;orthogonalLoop=1;jettySize=auto;html=1;exitX=1;exitY=0.5;exitDx=0;exitDy=0;entryX=0;entryY=0.5;entryDx=0;entryDy=0;dashed=1;endArrow=none;endFill=0;" edge="1" parent="1" source="paehrk6cWvg2qVC-d318-17" target="1Kpg1wvoOpG3iVUdZpvH-11">
          <mxGeometry relative="1" as="geometry" />
        </mxCell>
        <mxCell id="1Kpg1wvoOpG3iVUdZpvH-14" value="&amp;lt;&amp;lt;Extends&amp;gt;&amp;gt;" style="edgeLabel;html=1;align=center;verticalAlign=middle;resizable=0;points=[];" connectable="0" vertex="1" parent="1Kpg1wvoOpG3iVUdZpvH-12">
          <mxGeometry x="-0.0067" y="1" relative="1" as="geometry">
            <mxPoint as="offset" />
          </mxGeometry>
        </mxCell>
        <mxCell id="paehrk6cWvg2qVC-d318-17" value="Consultar finaceiro" style="ellipse;whiteSpace=wrap;html=1;shadow=0;rounded=1;" vertex="1" parent="1">
          <mxGeometry x="592.5" y="525" width="107.5" height="80" as="geometry" />
        </mxCell>
        <mxCell id="paehrk6cWvg2qVC-d318-22" value="&amp;lt;&amp;lt;Include&amp;gt;&amp;gt;" style="edgeLabel;html=1;align=center;verticalAlign=middle;resizable=0;points=[];rounded=1;" vertex="1" connectable="0" parent="1">
          <mxGeometry x="979.9959091482597" y="244.99943565147615" as="geometry">
            <mxPoint x="34" y="-12" as="offset" />
          </mxGeometry>
        </mxCell>
        <mxCell id="paehrk6cWvg2qVC-d318-23" value="&amp;lt;&amp;lt;Include&amp;gt;&amp;gt;" style="edgeLabel;html=1;align=center;verticalAlign=middle;resizable=0;points=[];rounded=1;" vertex="1" connectable="0" parent="1">
          <mxGeometry x="1294.9959091482597" y="279.9994356514761" as="geometry">
            <mxPoint x="-103" y="3" as="offset" />
          </mxGeometry>
        </mxCell>
        <mxCell id="paehrk6cWvg2qVC-d318-24" value="&amp;lt;&amp;lt;Include&amp;gt;&amp;gt;" style="edgeLabel;html=1;align=center;verticalAlign=middle;resizable=0;points=[];rounded=1;" vertex="1" connectable="0" parent="1">
          <mxGeometry x="1084.9959091482597" y="454.9994356514761" as="geometry">
            <mxPoint x="-1" y="39" as="offset" />
          </mxGeometry>
        </mxCell>
        <mxCell id="paehrk6cWvg2qVC-d318-25" value="Fazer avaliacao" style="ellipse;whiteSpace=wrap;html=1;shadow=0;rounded=1;" vertex="1" parent="1">
          <mxGeometry x="590" y="630" width="120" height="80" as="geometry" />
        </mxCell>
        <mxCell id="paehrk6cWvg2qVC-d318-27" style="edgeStyle=none;rounded=1;orthogonalLoop=1;jettySize=auto;html=1;exitX=1;exitY=0.5;exitDx=0;exitDy=0;dashed=1;endArrow=none;endFill=0;" edge="1" parent="1" source="paehrk6cWvg2qVC-d318-1" target="Z6TKPE_a9WBRSuv0R0ob-53">
          <mxGeometry relative="1" as="geometry" />
        </mxCell>
        <mxCell id="Z6TKPE_a9WBRSuv0R0ob-54" value="&lt;div&gt;&lt;br&gt;&lt;/div&gt;&lt;div&gt;&lt;br&gt;&lt;/div&gt;" style="edgeLabel;html=1;align=center;verticalAlign=middle;resizable=0;points=[];rounded=1;" connectable="0" vertex="1" parent="paehrk6cWvg2qVC-d318-27">
          <mxGeometry x="0.8743" y="-7" relative="1" as="geometry">
            <mxPoint y="-1" as="offset" />
          </mxGeometry>
        </mxCell>
        <mxCell id="paehrk6cWvg2qVC-d318-29" style="edgeStyle=none;rounded=1;orthogonalLoop=1;jettySize=auto;html=1;entryX=0;entryY=0.5;entryDx=0;entryDy=0;dashed=1;endArrow=none;endFill=0;" edge="1" parent="1" source="paehrk6cWvg2qVC-d318-34" target="Z6TKPE_a9WBRSuv0R0ob-53">
          <mxGeometry relative="1" as="geometry" />
        </mxCell>
        <mxCell id="paehrk6cWvg2qVC-d318-30" value="Imprimir relatorios" style="ellipse;whiteSpace=wrap;html=1;shadow=0;rounded=1;" vertex="1" parent="1">
          <mxGeometry x="570" y="735" width="120" height="80" as="geometry" />
        </mxCell>
        <mxCell id="paehrk6cWvg2qVC-d318-32" style="edgeStyle=none;rounded=1;orthogonalLoop=1;jettySize=auto;html=1;exitX=1;exitY=0.5;exitDx=0;exitDy=0;dashed=1;endArrow=none;endFill=0;entryX=0;entryY=1;entryDx=0;entryDy=0;" edge="1" parent="1" source="paehrk6cWvg2qVC-d318-30" target="Z6TKPE_a9WBRSuv0R0ob-53">
          <mxGeometry relative="1" as="geometry">
            <mxPoint x="1365" y="315" as="targetPoint" />
          </mxGeometry>
        </mxCell>
        <mxCell id="paehrk6cWvg2qVC-d318-35" value="&lt;span style=&quot;color: rgb(0, 0, 0); font-family: Helvetica; font-size: 11px; font-style: normal; font-variant-ligatures: normal; font-variant-caps: normal; font-weight: 400; letter-spacing: normal; orphans: 2; text-align: center; text-indent: 0px; text-transform: none; widows: 2; word-spacing: 0px; -webkit-text-stroke-width: 0px; white-space: nowrap; background-color: rgb(255, 255, 255); text-decoration-thickness: initial; text-decoration-style: initial; text-decoration-color: initial; display: inline !important; float: none;&quot;&gt;&amp;lt;&amp;lt;Include&amp;gt;&amp;gt;&lt;/span&gt;" style="text;whiteSpace=wrap;html=1;rounded=1;" vertex="1" parent="1">
          <mxGeometry x="910" y="700" width="105" height="70" as="geometry" />
        </mxCell>
        <mxCell id="paehrk6cWvg2qVC-d318-37" value="Aluno" style="shape=umlActor;verticalLabelPosition=bottom;verticalAlign=top;html=1;outlineConnect=0;rounded=1;" vertex="1" parent="1">
          <mxGeometry x="140" y="22.5" width="81.5" height="152.5" as="geometry" />
        </mxCell>
        <mxCell id="paehrk6cWvg2qVC-d318-57" style="edgeStyle=none;rounded=1;orthogonalLoop=1;jettySize=auto;html=1;exitX=0.5;exitY=0;exitDx=0;exitDy=0;dashed=1;endArrow=none;endFill=0;" edge="1" parent="1" source="paehrk6cWvg2qVC-d318-44" target="paehrk6cWvg2qVC-d318-46">
          <mxGeometry relative="1" as="geometry" />
        </mxCell>
        <mxCell id="Z6TKPE_a9WBRSuv0R0ob-36" value="&amp;lt;&amp;lt;Extends&amp;gt;&amp;gt;" style="edgeLabel;html=1;align=center;verticalAlign=middle;resizable=0;points=[];rounded=1;" connectable="0" vertex="1" parent="paehrk6cWvg2qVC-d318-57">
          <mxGeometry x="0.1983" relative="1" as="geometry">
            <mxPoint y="-1" as="offset" />
          </mxGeometry>
        </mxCell>
        <mxCell id="paehrk6cWvg2qVC-d318-58" style="edgeStyle=none;rounded=1;orthogonalLoop=1;jettySize=auto;html=1;exitX=0.583;exitY=0;exitDx=0;exitDy=0;dashed=1;endArrow=none;endFill=0;exitPerimeter=0;" edge="1" parent="1" source="paehrk6cWvg2qVC-d318-44" target="paehrk6cWvg2qVC-d318-47">
          <mxGeometry relative="1" as="geometry" />
        </mxCell>
        <mxCell id="Z6TKPE_a9WBRSuv0R0ob-37" value="&amp;lt;&amp;lt;Extends&amp;gt;&amp;gt;" style="edgeLabel;html=1;align=center;verticalAlign=middle;resizable=0;points=[];rounded=1;rotation=0;" connectable="0" vertex="1" parent="paehrk6cWvg2qVC-d318-58">
          <mxGeometry x="0.5193" y="-4" relative="1" as="geometry">
            <mxPoint as="offset" />
          </mxGeometry>
        </mxCell>
        <mxCell id="paehrk6cWvg2qVC-d318-59" style="edgeStyle=none;rounded=1;orthogonalLoop=1;jettySize=auto;html=1;entryX=0;entryY=0.5;entryDx=0;entryDy=0;dashed=1;endArrow=none;endFill=0;exitX=0.664;exitY=-0.01;exitDx=0;exitDy=0;exitPerimeter=0;" edge="1" parent="1" source="paehrk6cWvg2qVC-d318-44" target="paehrk6cWvg2qVC-d318-48">
          <mxGeometry relative="1" as="geometry" />
        </mxCell>
        <mxCell id="Z6TKPE_a9WBRSuv0R0ob-35" value="&amp;lt;&amp;lt;Extends&amp;gt;&amp;gt;" style="edgeLabel;html=1;align=center;verticalAlign=middle;resizable=0;points=[];rounded=1;" connectable="0" vertex="1" parent="paehrk6cWvg2qVC-d318-59">
          <mxGeometry x="0.2772" y="1" relative="1" as="geometry">
            <mxPoint as="offset" />
          </mxGeometry>
        </mxCell>
        <mxCell id="paehrk6cWvg2qVC-d318-62" style="edgeStyle=none;rounded=1;orthogonalLoop=1;jettySize=auto;html=1;entryX=0;entryY=0;entryDx=0;entryDy=0;dashed=1;endArrow=none;endFill=0;exitX=0.958;exitY=0.207;exitDx=0;exitDy=0;exitPerimeter=0;" edge="1" parent="1" source="paehrk6cWvg2qVC-d318-44" target="paehrk6cWvg2qVC-d318-51">
          <mxGeometry relative="1" as="geometry">
            <mxPoint x="490" y="1295" as="sourcePoint" />
          </mxGeometry>
        </mxCell>
        <mxCell id="Z6TKPE_a9WBRSuv0R0ob-40" value="&amp;lt;&amp;lt;Extends&amp;gt;&amp;gt;" style="edgeLabel;html=1;align=center;verticalAlign=middle;resizable=0;points=[];rounded=1;" connectable="0" vertex="1" parent="paehrk6cWvg2qVC-d318-62">
          <mxGeometry x="0.2695" relative="1" as="geometry">
            <mxPoint as="offset" />
          </mxGeometry>
        </mxCell>
        <mxCell id="paehrk6cWvg2qVC-d318-63" style="edgeStyle=none;rounded=1;orthogonalLoop=1;jettySize=auto;html=1;entryX=0;entryY=0;entryDx=0;entryDy=0;dashed=1;endArrow=none;endFill=0;exitX=0.998;exitY=0.303;exitDx=0;exitDy=0;exitPerimeter=0;" edge="1" parent="1" source="paehrk6cWvg2qVC-d318-44" target="paehrk6cWvg2qVC-d318-52">
          <mxGeometry relative="1" as="geometry">
            <mxPoint x="445" y="1305" as="sourcePoint" />
          </mxGeometry>
        </mxCell>
        <mxCell id="Z6TKPE_a9WBRSuv0R0ob-41" value="&amp;lt;&amp;lt;Extends&amp;gt;&amp;gt;" style="edgeLabel;html=1;align=center;verticalAlign=middle;resizable=0;points=[];rounded=1;" connectable="0" vertex="1" parent="paehrk6cWvg2qVC-d318-63">
          <mxGeometry x="0.2857" y="1" relative="1" as="geometry">
            <mxPoint y="1" as="offset" />
          </mxGeometry>
        </mxCell>
        <mxCell id="Z6TKPE_a9WBRSuv0R0ob-11" style="rounded=1;orthogonalLoop=1;jettySize=auto;html=1;exitX=1;exitY=1;exitDx=0;exitDy=0;entryX=0;entryY=0.5;entryDx=0;entryDy=0;dashed=1;endArrow=none;endFill=0;" edge="1" parent="1" source="paehrk6cWvg2qVC-d318-44" target="paehrk6cWvg2qVC-d318-55">
          <mxGeometry relative="1" as="geometry" />
        </mxCell>
        <mxCell id="Z6TKPE_a9WBRSuv0R0ob-43" value="&amp;lt;&amp;lt;Extends&amp;gt;&amp;gt;" style="edgeLabel;html=1;align=center;verticalAlign=middle;resizable=0;points=[];rounded=1;" connectable="0" vertex="1" parent="Z6TKPE_a9WBRSuv0R0ob-11">
          <mxGeometry x="0.2914" y="-2" relative="1" as="geometry">
            <mxPoint as="offset" />
          </mxGeometry>
        </mxCell>
        <mxCell id="Z6TKPE_a9WBRSuv0R0ob-12" style="rounded=1;orthogonalLoop=1;jettySize=auto;html=1;exitX=1;exitY=1;exitDx=0;exitDy=0;entryX=0;entryY=0.5;entryDx=0;entryDy=0;dashed=1;endArrow=none;endFill=0;" edge="1" parent="1" source="paehrk6cWvg2qVC-d318-44" target="Z6TKPE_a9WBRSuv0R0ob-1">
          <mxGeometry relative="1" as="geometry" />
        </mxCell>
        <mxCell id="Z6TKPE_a9WBRSuv0R0ob-44" value="&amp;lt;&amp;lt;Extends&amp;gt;&amp;gt;" style="edgeLabel;html=1;align=center;verticalAlign=middle;resizable=0;points=[];rounded=1;" connectable="0" vertex="1" parent="Z6TKPE_a9WBRSuv0R0ob-12">
          <mxGeometry x="0.4294" relative="1" as="geometry">
            <mxPoint as="offset" />
          </mxGeometry>
        </mxCell>
        <mxCell id="Z6TKPE_a9WBRSuv0R0ob-13" style="edgeStyle=none;rounded=1;orthogonalLoop=1;jettySize=auto;html=1;exitX=0.799;exitY=0.956;exitDx=0;exitDy=0;exitPerimeter=0;dashed=1;endArrow=none;endFill=0;" edge="1" parent="1" source="paehrk6cWvg2qVC-d318-44" target="Z6TKPE_a9WBRSuv0R0ob-2">
          <mxGeometry relative="1" as="geometry" />
        </mxCell>
        <mxCell id="Z6TKPE_a9WBRSuv0R0ob-45" value="&amp;lt;&amp;lt;Extends&amp;gt;&amp;gt;" style="edgeLabel;html=1;align=center;verticalAlign=middle;resizable=0;points=[];rounded=1;" connectable="0" vertex="1" parent="Z6TKPE_a9WBRSuv0R0ob-13">
          <mxGeometry x="0.3909" y="1" relative="1" as="geometry">
            <mxPoint as="offset" />
          </mxGeometry>
        </mxCell>
        <mxCell id="Z6TKPE_a9WBRSuv0R0ob-14" style="edgeStyle=none;rounded=1;orthogonalLoop=1;jettySize=auto;html=1;exitX=0.767;exitY=0.942;exitDx=0;exitDy=0;exitPerimeter=0;dashed=1;endArrow=none;endFill=0;" edge="1" parent="1" source="paehrk6cWvg2qVC-d318-44" target="Z6TKPE_a9WBRSuv0R0ob-3">
          <mxGeometry relative="1" as="geometry" />
        </mxCell>
        <mxCell id="Z6TKPE_a9WBRSuv0R0ob-46" value="&amp;lt;&amp;lt;Extends&amp;gt;&amp;gt;" style="edgeLabel;html=1;align=center;verticalAlign=middle;resizable=0;points=[];rounded=1;" connectable="0" vertex="1" parent="Z6TKPE_a9WBRSuv0R0ob-14">
          <mxGeometry x="0.4643" y="-1" relative="1" as="geometry">
            <mxPoint y="-1" as="offset" />
          </mxGeometry>
        </mxCell>
        <mxCell id="Z6TKPE_a9WBRSuv0R0ob-15" style="edgeStyle=none;rounded=1;orthogonalLoop=1;jettySize=auto;html=1;exitX=0.712;exitY=0.983;exitDx=0;exitDy=0;exitPerimeter=0;dashed=1;endArrow=none;endFill=0;" edge="1" parent="1" source="paehrk6cWvg2qVC-d318-44" target="Z6TKPE_a9WBRSuv0R0ob-4">
          <mxGeometry relative="1" as="geometry" />
        </mxCell>
        <mxCell id="Z6TKPE_a9WBRSuv0R0ob-47" value="&amp;lt;&amp;lt;Extends&amp;gt;&amp;gt;" style="edgeLabel;html=1;align=center;verticalAlign=middle;resizable=0;points=[];rounded=1;" connectable="0" vertex="1" parent="Z6TKPE_a9WBRSuv0R0ob-15">
          <mxGeometry x="0.467" relative="1" as="geometry">
            <mxPoint as="offset" />
          </mxGeometry>
        </mxCell>
        <mxCell id="Z6TKPE_a9WBRSuv0R0ob-16" style="edgeStyle=none;rounded=1;orthogonalLoop=1;jettySize=auto;html=1;exitX=0.656;exitY=1.024;exitDx=0;exitDy=0;entryX=0;entryY=0.5;entryDx=0;entryDy=0;exitPerimeter=0;dashed=1;endArrow=none;endFill=0;" edge="1" parent="1" source="paehrk6cWvg2qVC-d318-44" target="Z6TKPE_a9WBRSuv0R0ob-5">
          <mxGeometry relative="1" as="geometry">
            <mxPoint x="595" y="2100" as="targetPoint" />
          </mxGeometry>
        </mxCell>
        <mxCell id="Z6TKPE_a9WBRSuv0R0ob-48" value="&amp;lt;&amp;lt;Extends&amp;gt;&amp;gt;" style="edgeLabel;html=1;align=center;verticalAlign=middle;resizable=0;points=[];rounded=1;" connectable="0" vertex="1" parent="Z6TKPE_a9WBRSuv0R0ob-16">
          <mxGeometry x="0.5037" relative="1" as="geometry">
            <mxPoint as="offset" />
          </mxGeometry>
        </mxCell>
        <mxCell id="Z6TKPE_a9WBRSuv0R0ob-17" style="edgeStyle=none;rounded=1;orthogonalLoop=1;jettySize=auto;html=1;exitX=0.601;exitY=1.024;exitDx=0;exitDy=0;entryX=0;entryY=0.5;entryDx=0;entryDy=0;exitPerimeter=0;dashed=1;endArrow=none;endFill=0;" edge="1" parent="1" source="paehrk6cWvg2qVC-d318-44" target="Z6TKPE_a9WBRSuv0R0ob-6">
          <mxGeometry relative="1" as="geometry">
            <mxPoint x="455" y="1995" as="targetPoint" />
          </mxGeometry>
        </mxCell>
        <mxCell id="Z6TKPE_a9WBRSuv0R0ob-49" value="&amp;lt;&amp;lt;Extends&amp;gt;&amp;gt;" style="edgeLabel;html=1;align=center;verticalAlign=middle;resizable=0;points=[];rounded=1;" connectable="0" vertex="1" parent="Z6TKPE_a9WBRSuv0R0ob-17">
          <mxGeometry x="0.5247" y="3" relative="1" as="geometry">
            <mxPoint as="offset" />
          </mxGeometry>
        </mxCell>
        <mxCell id="Z6TKPE_a9WBRSuv0R0ob-18" style="edgeStyle=none;rounded=1;orthogonalLoop=1;jettySize=auto;html=1;exitX=0.5;exitY=1;exitDx=0;exitDy=0;entryX=0;entryY=0.5;entryDx=0;entryDy=0;startArrow=none;startFill=0;endArrow=none;endFill=0;dashed=1;" edge="1" parent="1" source="paehrk6cWvg2qVC-d318-44" target="Z6TKPE_a9WBRSuv0R0ob-7">
          <mxGeometry relative="1" as="geometry">
            <mxPoint x="525" y="2170" as="targetPoint" />
          </mxGeometry>
        </mxCell>
        <mxCell id="Z6TKPE_a9WBRSuv0R0ob-50" value="&amp;lt;&amp;lt;Extends&amp;gt;&amp;gt;" style="edgeLabel;html=1;align=center;verticalAlign=middle;resizable=0;points=[];rounded=1;" connectable="0" vertex="1" parent="Z6TKPE_a9WBRSuv0R0ob-18">
          <mxGeometry x="0.5322" y="-2" relative="1" as="geometry">
            <mxPoint as="offset" />
          </mxGeometry>
        </mxCell>
        <mxCell id="paehrk6cWvg2qVC-d318-44" value="Consultar serviços" style="ellipse;whiteSpace=wrap;html=1;shadow=0;rounded=1;" vertex="1" parent="1">
          <mxGeometry x="210" y="1330" width="120" height="70" as="geometry" />
        </mxCell>
        <mxCell id="Z6TKPE_a9WBRSuv0R0ob-57" style="edgeStyle=none;rounded=1;orthogonalLoop=1;jettySize=auto;html=1;exitX=1;exitY=0.5;exitDx=0;exitDy=0;entryX=0.5;entryY=0;entryDx=0;entryDy=0;dashed=1;endArrow=none;endFill=0;" edge="1" parent="1" source="paehrk6cWvg2qVC-d318-46" target="Z6TKPE_a9WBRSuv0R0ob-51">
          <mxGeometry relative="1" as="geometry" />
        </mxCell>
        <mxCell id="paehrk6cWvg2qVC-d318-46" value="Consultat email" style="ellipse;whiteSpace=wrap;html=1;shadow=0;rounded=1;" vertex="1" parent="1">
          <mxGeometry x="805" y="840" width="120" height="80" as="geometry" />
        </mxCell>
        <mxCell id="paehrk6cWvg2qVC-d318-47" value="Alterar senha" style="ellipse;whiteSpace=wrap;html=1;shadow=0;rounded=1;" vertex="1" parent="1">
          <mxGeometry x="805" y="945" width="120" height="80" as="geometry" />
        </mxCell>
        <mxCell id="Z6TKPE_a9WBRSuv0R0ob-59" style="edgeStyle=none;rounded=1;orthogonalLoop=1;jettySize=auto;html=1;exitX=1;exitY=0.5;exitDx=0;exitDy=0;entryX=0;entryY=0;entryDx=0;entryDy=0;dashed=1;endArrow=none;endFill=0;" edge="1" parent="1" source="paehrk6cWvg2qVC-d318-48" target="Z6TKPE_a9WBRSuv0R0ob-51">
          <mxGeometry relative="1" as="geometry" />
        </mxCell>
        <mxCell id="paehrk6cWvg2qVC-d318-48" value="Consultar AVA" style="ellipse;whiteSpace=wrap;html=1;shadow=0;rounded=1;" vertex="1" parent="1">
          <mxGeometry x="805" y="1050" width="120" height="70" as="geometry" />
        </mxCell>
        <mxCell id="paehrk6cWvg2qVC-d318-49" value="Consultar biblioteca" style="ellipse;whiteSpace=wrap;html=1;shadow=0;rounded=1;" vertex="1" parent="1">
          <mxGeometry x="805" y="1155" width="120" height="80" as="geometry" />
        </mxCell>
        <mxCell id="Z6TKPE_a9WBRSuv0R0ob-61" style="edgeStyle=none;rounded=1;orthogonalLoop=1;jettySize=auto;html=1;exitX=1;exitY=0.5;exitDx=0;exitDy=0;endArrow=none;endFill=0;dashed=1;" edge="1" parent="1" source="paehrk6cWvg2qVC-d318-50" target="Z6TKPE_a9WBRSuv0R0ob-51">
          <mxGeometry relative="1" as="geometry" />
        </mxCell>
        <mxCell id="paehrk6cWvg2qVC-d318-50" value="Consultat biblioteca virtual" style="ellipse;whiteSpace=wrap;html=1;shadow=0;rounded=1;" vertex="1" parent="1">
          <mxGeometry x="805" y="1260" width="120" height="80" as="geometry" />
        </mxCell>
        <mxCell id="Z6TKPE_a9WBRSuv0R0ob-62" style="edgeStyle=none;rounded=1;orthogonalLoop=1;jettySize=auto;html=1;exitX=1;exitY=0.5;exitDx=0;exitDy=0;dashed=1;endArrow=none;endFill=0;" edge="1" parent="1" source="paehrk6cWvg2qVC-d318-51" target="Z6TKPE_a9WBRSuv0R0ob-51">
          <mxGeometry relative="1" as="geometry" />
        </mxCell>
        <mxCell id="paehrk6cWvg2qVC-d318-51" value="Consultar calendario acadêmico" style="ellipse;whiteSpace=wrap;html=1;shadow=0;rounded=1;" vertex="1" parent="1">
          <mxGeometry x="805" y="1365" width="120" height="80" as="geometry" />
        </mxCell>
        <mxCell id="Z6TKPE_a9WBRSuv0R0ob-63" style="edgeStyle=none;rounded=1;orthogonalLoop=1;jettySize=auto;html=1;exitX=1;exitY=0.5;exitDx=0;exitDy=0;entryX=0.333;entryY=1;entryDx=0;entryDy=0;entryPerimeter=0;endArrow=none;endFill=0;dashed=1;" edge="1" parent="1" source="paehrk6cWvg2qVC-d318-52" target="Z6TKPE_a9WBRSuv0R0ob-51">
          <mxGeometry relative="1" as="geometry" />
        </mxCell>
        <mxCell id="paehrk6cWvg2qVC-d318-52" value="Consultar salas" style="ellipse;whiteSpace=wrap;html=1;shadow=0;rounded=1;" vertex="1" parent="1">
          <mxGeometry x="805" y="1470" width="120" height="80" as="geometry" />
        </mxCell>
        <mxCell id="paehrk6cWvg2qVC-d318-64" style="edgeStyle=none;rounded=1;orthogonalLoop=1;jettySize=auto;html=1;exitX=0;exitY=0;exitDx=0;exitDy=0;entryX=1.021;entryY=0.425;entryDx=0;entryDy=0;dashed=1;endArrow=none;endFill=0;entryPerimeter=0;" edge="1" parent="1" source="paehrk6cWvg2qVC-d318-53" target="paehrk6cWvg2qVC-d318-44">
          <mxGeometry relative="1" as="geometry" />
        </mxCell>
        <mxCell id="Z6TKPE_a9WBRSuv0R0ob-42" value="&amp;lt;&amp;lt;Extends&amp;gt;&amp;gt;" style="edgeLabel;html=1;align=center;verticalAlign=middle;resizable=0;points=[];rounded=1;" connectable="0" vertex="1" parent="paehrk6cWvg2qVC-d318-64">
          <mxGeometry x="-0.2294" relative="1" as="geometry">
            <mxPoint as="offset" />
          </mxGeometry>
        </mxCell>
        <mxCell id="Z6TKPE_a9WBRSuv0R0ob-65" style="edgeStyle=none;rounded=1;orthogonalLoop=1;jettySize=auto;html=1;exitX=1;exitY=0.5;exitDx=0;exitDy=0;entryX=0.5;entryY=1;entryDx=0;entryDy=0;endArrow=none;endFill=0;dashed=1;" edge="1" parent="1" source="paehrk6cWvg2qVC-d318-53" target="Z6TKPE_a9WBRSuv0R0ob-51">
          <mxGeometry relative="1" as="geometry" />
        </mxCell>
        <mxCell id="paehrk6cWvg2qVC-d318-53" value="Consultar Documentos" style="ellipse;whiteSpace=wrap;html=1;shadow=0;rounded=1;" vertex="1" parent="1">
          <mxGeometry x="805" y="1575" width="120" height="80" as="geometry" />
        </mxCell>
        <mxCell id="paehrk6cWvg2qVC-d318-65" style="edgeStyle=none;rounded=1;orthogonalLoop=1;jettySize=auto;html=1;exitX=0;exitY=0.5;exitDx=0;exitDy=0;dashed=1;endArrow=none;endFill=0;entryX=1.029;entryY=0.616;entryDx=0;entryDy=0;entryPerimeter=0;" edge="1" parent="1" source="paehrk6cWvg2qVC-d318-54" target="paehrk6cWvg2qVC-d318-44">
          <mxGeometry relative="1" as="geometry">
            <mxPoint x="210" y="1575" as="targetPoint" />
          </mxGeometry>
        </mxCell>
        <mxCell id="Z6TKPE_a9WBRSuv0R0ob-10" value="&amp;lt;&amp;lt;Extends&amp;gt;&amp;gt;" style="edgeLabel;html=1;align=center;verticalAlign=middle;resizable=0;points=[];rounded=1;" connectable="0" vertex="1" parent="paehrk6cWvg2qVC-d318-65">
          <mxGeometry x="-0.3957" y="-4" relative="1" as="geometry">
            <mxPoint as="offset" />
          </mxGeometry>
        </mxCell>
        <mxCell id="Z6TKPE_a9WBRSuv0R0ob-66" style="edgeStyle=none;rounded=1;orthogonalLoop=1;jettySize=auto;html=1;exitX=1;exitY=0.5;exitDx=0;exitDy=0;entryX=1;entryY=0;entryDx=0;entryDy=0;dashed=1;endArrow=none;endFill=0;" edge="1" parent="1" source="paehrk6cWvg2qVC-d318-54" target="Z6TKPE_a9WBRSuv0R0ob-64">
          <mxGeometry relative="1" as="geometry" />
        </mxCell>
        <mxCell id="paehrk6cWvg2qVC-d318-54" value="Consultar extrato finaceiro" style="ellipse;whiteSpace=wrap;html=1;shadow=0;rounded=1;" vertex="1" parent="1">
          <mxGeometry x="805" y="1680" width="120" height="80" as="geometry" />
        </mxCell>
        <mxCell id="Z6TKPE_a9WBRSuv0R0ob-67" style="edgeStyle=none;rounded=1;orthogonalLoop=1;jettySize=auto;html=1;exitX=1;exitY=0.5;exitDx=0;exitDy=0;entryX=0.5;entryY=0;entryDx=0;entryDy=0;dashed=1;endArrow=none;endFill=0;" edge="1" parent="1" source="paehrk6cWvg2qVC-d318-55" target="Z6TKPE_a9WBRSuv0R0ob-64">
          <mxGeometry relative="1" as="geometry" />
        </mxCell>
        <mxCell id="paehrk6cWvg2qVC-d318-55" value="Consultar formatura" style="ellipse;whiteSpace=wrap;html=1;shadow=0;rounded=1;" vertex="1" parent="1">
          <mxGeometry x="805" y="1785" width="120" height="80" as="geometry" />
        </mxCell>
        <mxCell id="paehrk6cWvg2qVC-d318-60" style="edgeStyle=none;rounded=1;orthogonalLoop=1;jettySize=auto;html=1;exitX=0.767;exitY=0.058;exitDx=0;exitDy=0;entryX=0.039;entryY=0.359;entryDx=0;entryDy=0;entryPerimeter=0;dashed=1;endArrow=none;endFill=0;exitPerimeter=0;" edge="1" parent="1" source="paehrk6cWvg2qVC-d318-44" target="paehrk6cWvg2qVC-d318-49">
          <mxGeometry relative="1" as="geometry" />
        </mxCell>
        <mxCell id="Z6TKPE_a9WBRSuv0R0ob-38" value="&amp;lt;&amp;lt;Extends&amp;gt;&amp;gt;" style="edgeLabel;html=1;align=center;verticalAlign=middle;resizable=0;points=[];rounded=1;" connectable="0" vertex="1" parent="paehrk6cWvg2qVC-d318-60">
          <mxGeometry x="0.2926" y="-3" relative="1" as="geometry">
            <mxPoint as="offset" />
          </mxGeometry>
        </mxCell>
        <mxCell id="paehrk6cWvg2qVC-d318-61" style="edgeStyle=none;rounded=1;orthogonalLoop=1;jettySize=auto;html=1;exitX=1;exitY=0;exitDx=0;exitDy=0;entryX=0.011;entryY=0.318;entryDx=0;entryDy=0;entryPerimeter=0;dashed=1;endArrow=none;endFill=0;" edge="1" parent="1" source="paehrk6cWvg2qVC-d318-44" target="paehrk6cWvg2qVC-d318-50">
          <mxGeometry relative="1" as="geometry" />
        </mxCell>
        <mxCell id="Z6TKPE_a9WBRSuv0R0ob-39" value="&amp;lt;Extends&amp;gt;&amp;gt;" style="edgeLabel;html=1;align=center;verticalAlign=middle;resizable=0;points=[];rounded=1;" connectable="0" vertex="1" parent="paehrk6cWvg2qVC-d318-61">
          <mxGeometry x="0.2834" y="-1" relative="1" as="geometry">
            <mxPoint as="offset" />
          </mxGeometry>
        </mxCell>
        <mxCell id="Z6TKPE_a9WBRSuv0R0ob-1" value="Consultar biblioteca jurídica" style="ellipse;whiteSpace=wrap;html=1;shadow=0;rounded=1;" vertex="1" parent="1">
          <mxGeometry x="805" y="1890" width="120" height="80" as="geometry" />
        </mxCell>
        <mxCell id="Z6TKPE_a9WBRSuv0R0ob-69" style="edgeStyle=none;rounded=1;orthogonalLoop=1;jettySize=auto;html=1;exitX=1;exitY=0.5;exitDx=0;exitDy=0;entryX=0;entryY=0;entryDx=0;entryDy=0;dashed=1;endArrow=none;endFill=0;" edge="1" parent="1" source="Z6TKPE_a9WBRSuv0R0ob-2" target="Z6TKPE_a9WBRSuv0R0ob-64">
          <mxGeometry relative="1" as="geometry" />
        </mxCell>
        <mxCell id="Z6TKPE_a9WBRSuv0R0ob-2" value="Contatar ouvidoria" style="ellipse;whiteSpace=wrap;html=1;shadow=0;rounded=1;" vertex="1" parent="1">
          <mxGeometry x="805" y="1995" width="120" height="80" as="geometry" />
        </mxCell>
        <mxCell id="Z6TKPE_a9WBRSuv0R0ob-70" style="edgeStyle=none;rounded=1;orthogonalLoop=1;jettySize=auto;html=1;exitX=1;exitY=0.5;exitDx=0;exitDy=0;entryX=0;entryY=0.5;entryDx=0;entryDy=0;dashed=1;endArrow=none;endFill=0;" edge="1" parent="1" source="Z6TKPE_a9WBRSuv0R0ob-3" target="Z6TKPE_a9WBRSuv0R0ob-64">
          <mxGeometry relative="1" as="geometry" />
        </mxCell>
        <mxCell id="Z6TKPE_a9WBRSuv0R0ob-3" value="Visualizar plano de ensino" style="ellipse;whiteSpace=wrap;html=1;shadow=0;rounded=1;" vertex="1" parent="1">
          <mxGeometry x="805" y="2100" width="120" height="80" as="geometry" />
        </mxCell>
        <mxCell id="Z6TKPE_a9WBRSuv0R0ob-71" style="edgeStyle=none;rounded=1;orthogonalLoop=1;jettySize=auto;html=1;exitX=1;exitY=0.5;exitDx=0;exitDy=0;entryX=0.056;entryY=0.752;entryDx=0;entryDy=0;entryPerimeter=0;endArrow=none;endFill=0;dashed=1;" edge="1" parent="1" source="Z6TKPE_a9WBRSuv0R0ob-4" target="Z6TKPE_a9WBRSuv0R0ob-64">
          <mxGeometry relative="1" as="geometry" />
        </mxCell>
        <mxCell id="Z6TKPE_a9WBRSuv0R0ob-4" value="Consultar periodicos" style="ellipse;whiteSpace=wrap;html=1;shadow=0;rounded=1;" vertex="1" parent="1">
          <mxGeometry x="805" y="2205" width="120" height="80" as="geometry" />
        </mxCell>
        <mxCell id="Z6TKPE_a9WBRSuv0R0ob-72" style="edgeStyle=none;rounded=1;orthogonalLoop=1;jettySize=auto;html=1;exitX=1;exitY=0.5;exitDx=0;exitDy=0;entryX=0;entryY=1;entryDx=0;entryDy=0;endArrow=none;endFill=0;dashed=1;" edge="1" parent="1" source="Z6TKPE_a9WBRSuv0R0ob-5" target="Z6TKPE_a9WBRSuv0R0ob-64">
          <mxGeometry relative="1" as="geometry" />
        </mxCell>
        <mxCell id="Z6TKPE_a9WBRSuv0R0ob-5" value="Consultar projeto comunitário" style="ellipse;whiteSpace=wrap;html=1;shadow=0;rounded=1;" vertex="1" parent="1">
          <mxGeometry x="805" y="2310" width="120" height="80" as="geometry" />
        </mxCell>
        <mxCell id="Z6TKPE_a9WBRSuv0R0ob-6" value="Consultar horários" style="ellipse;whiteSpace=wrap;html=1;shadow=0;rounded=1;" vertex="1" parent="1">
          <mxGeometry x="805" y="2415" width="120" height="80" as="geometry" />
        </mxCell>
        <mxCell id="Z6TKPE_a9WBRSuv0R0ob-74" style="edgeStyle=none;rounded=1;orthogonalLoop=1;jettySize=auto;html=1;exitX=1;exitY=0.5;exitDx=0;exitDy=0;entryX=0.5;entryY=1;entryDx=0;entryDy=0;endArrow=none;endFill=0;dashed=1;" edge="1" parent="1" source="Z6TKPE_a9WBRSuv0R0ob-7" target="Z6TKPE_a9WBRSuv0R0ob-64">
          <mxGeometry relative="1" as="geometry" />
        </mxCell>
        <mxCell id="Z6TKPE_a9WBRSuv0R0ob-7" value="Consultar sala virtual" style="ellipse;whiteSpace=wrap;html=1;shadow=0;rounded=1;" vertex="1" parent="1">
          <mxGeometry x="805" y="2520" width="120" height="80" as="geometry" />
        </mxCell>
        <mxCell id="Z6TKPE_a9WBRSuv0R0ob-51" value="Fazer loogin" style="ellipse;whiteSpace=wrap;html=1;shadow=0;rounded=1;fillColor=#f8cecc;strokeColor=#b85450;" vertex="1" parent="1">
          <mxGeometry x="1260" y="1085" width="210" height="105" as="geometry" />
        </mxCell>
        <mxCell id="Z6TKPE_a9WBRSuv0R0ob-53" value="Fazer loogin" style="ellipse;whiteSpace=wrap;html=1;shadow=0;rounded=1;fillColor=#f8cecc;strokeColor=#b85450;" vertex="1" parent="1">
          <mxGeometry x="1260" y="525" width="210" height="105" as="geometry" />
        </mxCell>
        <mxCell id="Z6TKPE_a9WBRSuv0R0ob-55" value="" style="edgeStyle=none;rounded=1;orthogonalLoop=1;jettySize=auto;html=1;entryX=0;entryY=0.5;entryDx=0;entryDy=0;dashed=1;endArrow=none;endFill=0;" edge="1" parent="1" source="paehrk6cWvg2qVC-d318-25" target="paehrk6cWvg2qVC-d318-34">
          <mxGeometry relative="1" as="geometry">
            <mxPoint x="709" y="661" as="sourcePoint" />
            <mxPoint x="1260" y="578" as="targetPoint" />
          </mxGeometry>
        </mxCell>
        <mxCell id="paehrk6cWvg2qVC-d318-34" value="&#xa;&lt;span style=&quot;color: rgb(0, 0, 0); font-family: Helvetica; font-size: 11px; font-style: normal; font-variant-ligatures: normal; font-variant-caps: normal; font-weight: 400; letter-spacing: normal; orphans: 2; text-align: center; text-indent: 0px; text-transform: none; widows: 2; word-spacing: 0px; -webkit-text-stroke-width: 0px; white-space: nowrap; background-color: rgb(255, 255, 255); text-decoration-thickness: initial; text-decoration-style: initial; text-decoration-color: initial; display: inline !important; float: none;&quot;&gt;&amp;lt;&amp;lt;Include&amp;gt;&amp;gt;&lt;/span&gt;&#xa;&#xa;" style="text;whiteSpace=wrap;html=1;rounded=1;" vertex="1" parent="1">
          <mxGeometry x="945" y="595" width="35" height="70" as="geometry" />
        </mxCell>
        <mxCell id="Z6TKPE_a9WBRSuv0R0ob-58" style="edgeStyle=none;rounded=1;orthogonalLoop=1;jettySize=auto;html=1;exitX=1;exitY=0.5;exitDx=0;exitDy=0;entryX=0.352;entryY=0.018;entryDx=0;entryDy=0;entryPerimeter=0;dashed=1;endArrow=none;endFill=0;" edge="1" parent="1" source="paehrk6cWvg2qVC-d318-47" target="Z6TKPE_a9WBRSuv0R0ob-51">
          <mxGeometry relative="1" as="geometry" />
        </mxCell>
        <mxCell id="Z6TKPE_a9WBRSuv0R0ob-60" style="edgeStyle=none;rounded=1;orthogonalLoop=1;jettySize=auto;html=1;exitX=1;exitY=0.5;exitDx=0;exitDy=0;entryX=-0.009;entryY=0.399;entryDx=0;entryDy=0;entryPerimeter=0;endArrow=none;endFill=0;dashed=1;" edge="1" parent="1" source="paehrk6cWvg2qVC-d318-49" target="Z6TKPE_a9WBRSuv0R0ob-51">
          <mxGeometry relative="1" as="geometry" />
        </mxCell>
        <mxCell id="Z6TKPE_a9WBRSuv0R0ob-64" value="Fazer loogin" style="ellipse;whiteSpace=wrap;html=1;shadow=0;rounded=1;fillColor=#f8cecc;strokeColor=#b85450;" vertex="1" parent="1">
          <mxGeometry x="1225" y="1995" width="210" height="105" as="geometry" />
        </mxCell>
        <mxCell id="Z6TKPE_a9WBRSuv0R0ob-68" style="edgeStyle=none;rounded=1;orthogonalLoop=1;jettySize=auto;html=1;exitX=1;exitY=0.5;exitDx=0;exitDy=0;entryX=0.287;entryY=0.045;entryDx=0;entryDy=0;entryPerimeter=0;startArrow=none;startFill=0;dashed=1;endArrow=none;endFill=0;" edge="1" parent="1" source="Z6TKPE_a9WBRSuv0R0ob-1" target="Z6TKPE_a9WBRSuv0R0ob-64">
          <mxGeometry relative="1" as="geometry" />
        </mxCell>
        <mxCell id="Z6TKPE_a9WBRSuv0R0ob-73" style="edgeStyle=none;rounded=1;orthogonalLoop=1;jettySize=auto;html=1;exitX=1;exitY=0.5;exitDx=0;exitDy=0;entryX=0.253;entryY=0.956;entryDx=0;entryDy=0;entryPerimeter=0;endArrow=none;endFill=0;dashed=1;" edge="1" parent="1" source="Z6TKPE_a9WBRSuv0R0ob-6" target="Z6TKPE_a9WBRSuv0R0ob-64">
          <mxGeometry relative="1" as="geometry" />
        </mxCell>
        <mxCell id="Z6TKPE_a9WBRSuv0R0ob-75" value="&#xa;&lt;span style=&quot;color: rgb(0, 0, 0); font-family: Helvetica; font-size: 11px; font-style: normal; font-variant-ligatures: normal; font-variant-caps: normal; font-weight: 400; letter-spacing: normal; orphans: 2; text-align: center; text-indent: 0px; text-transform: none; widows: 2; word-spacing: 0px; -webkit-text-stroke-width: 0px; white-space: nowrap; background-color: rgb(255, 255, 255); text-decoration-thickness: initial; text-decoration-style: initial; text-decoration-color: initial; display: inline !important; float: none;&quot;&gt;&amp;lt;&amp;lt;Include&amp;gt;&amp;gt;&lt;/span&gt;&#xa;&#xa;" style="text;whiteSpace=wrap;html=1;rounded=1;" vertex="1" parent="1">
          <mxGeometry x="980" y="630" width="35" height="70" as="geometry" />
        </mxCell>
        <mxCell id="Z6TKPE_a9WBRSuv0R0ob-77" value="&#xa;&lt;span style=&quot;color: rgb(0, 0, 0); font-family: Helvetica; font-size: 11px; font-style: normal; font-variant-ligatures: normal; font-variant-caps: normal; font-weight: 400; letter-spacing: normal; orphans: 2; text-align: center; text-indent: 0px; text-transform: none; widows: 2; word-spacing: 0px; -webkit-text-stroke-width: 0px; white-space: nowrap; background-color: rgb(255, 255, 255); text-decoration-thickness: initial; text-decoration-style: initial; text-decoration-color: initial; display: inline !important; float: none;&quot;&gt;&amp;lt;&amp;lt;Include&amp;gt;&amp;gt;&lt;/span&gt;&#xa;&#xa;" style="text;whiteSpace=wrap;html=1;rounded=1;" vertex="1" parent="1">
          <mxGeometry x="1120" y="945" width="70" height="70" as="geometry" />
        </mxCell>
        <mxCell id="Z6TKPE_a9WBRSuv0R0ob-79" value="&#xa;&lt;span style=&quot;color: rgb(0, 0, 0); font-family: Helvetica; font-size: 11px; font-style: normal; font-variant-ligatures: normal; font-variant-caps: normal; font-weight: 400; letter-spacing: normal; orphans: 2; text-align: center; text-indent: 0px; text-transform: none; widows: 2; word-spacing: 0px; -webkit-text-stroke-width: 0px; white-space: nowrap; background-color: rgb(255, 255, 255); text-decoration-thickness: initial; text-decoration-style: initial; text-decoration-color: initial; display: inline !important; float: none;&quot;&gt;&amp;lt;&amp;lt;Include&amp;gt;&amp;gt;&lt;/span&gt;&#xa;&#xa;" style="text;whiteSpace=wrap;html=1;rounded=1;" vertex="1" parent="1">
          <mxGeometry x="1120" y="1015" width="70" height="70" as="geometry" />
        </mxCell>
        <mxCell id="Z6TKPE_a9WBRSuv0R0ob-80" value="&#xa;&lt;span style=&quot;color: rgb(0, 0, 0); font-family: Helvetica; font-size: 11px; font-style: normal; font-variant-ligatures: normal; font-variant-caps: normal; font-weight: 400; letter-spacing: normal; orphans: 2; text-align: center; text-indent: 0px; text-transform: none; widows: 2; word-spacing: 0px; -webkit-text-stroke-width: 0px; white-space: nowrap; background-color: rgb(255, 255, 255); text-decoration-thickness: initial; text-decoration-style: initial; text-decoration-color: initial; display: inline !important; float: none;&quot;&gt;&amp;lt;&amp;lt;Include&amp;gt;&amp;gt;&lt;/span&gt;&#xa;&#xa;" style="text;whiteSpace=wrap;html=1;rounded=1;" vertex="1" parent="1">
          <mxGeometry x="1050" y="1050" width="70" height="70" as="geometry" />
        </mxCell>
        <mxCell id="Z6TKPE_a9WBRSuv0R0ob-81" value="&#xa;&lt;span style=&quot;color: rgb(0, 0, 0); font-family: Helvetica; font-size: 11px; font-style: normal; font-variant-ligatures: normal; font-variant-caps: normal; font-weight: 400; letter-spacing: normal; orphans: 2; text-align: center; text-indent: 0px; text-transform: none; widows: 2; word-spacing: 0px; -webkit-text-stroke-width: 0px; white-space: nowrap; background-color: rgb(255, 255, 255); text-decoration-thickness: initial; text-decoration-style: initial; text-decoration-color: initial; display: inline !important; float: none;&quot;&gt;&amp;lt;&amp;lt;Include&amp;gt;&amp;gt;&lt;/span&gt;&#xa;&#xa;" style="text;whiteSpace=wrap;html=1;rounded=1;" vertex="1" parent="1">
          <mxGeometry x="1120" y="1120" width="70" height="70" as="geometry" />
        </mxCell>
        <mxCell id="Z6TKPE_a9WBRSuv0R0ob-85" value="&#xa;&lt;span style=&quot;color: rgb(0, 0, 0); font-family: Helvetica; font-size: 11px; font-style: normal; font-variant-ligatures: normal; font-variant-caps: normal; font-weight: 400; letter-spacing: normal; orphans: 2; text-align: center; text-indent: 0px; text-transform: none; widows: 2; word-spacing: 0px; -webkit-text-stroke-width: 0px; white-space: nowrap; background-color: rgb(255, 255, 255); text-decoration-thickness: initial; text-decoration-style: initial; text-decoration-color: initial; display: inline !important; float: none;&quot;&gt;&amp;lt;&amp;lt;Include&amp;gt;&amp;gt;&lt;/span&gt;&#xa;&#xa;" style="text;whiteSpace=wrap;html=1;rounded=1;" vertex="1" parent="1">
          <mxGeometry x="1015" y="1225" width="70" height="70" as="geometry" />
        </mxCell>
        <mxCell id="Z6TKPE_a9WBRSuv0R0ob-86" value="&#xa;&lt;span style=&quot;color: rgb(0, 0, 0); font-family: Helvetica; font-size: 11px; font-style: normal; font-variant-ligatures: normal; font-variant-caps: normal; font-weight: 400; letter-spacing: normal; orphans: 2; text-align: center; text-indent: 0px; text-transform: none; widows: 2; word-spacing: 0px; -webkit-text-stroke-width: 0px; white-space: nowrap; background-color: rgb(255, 255, 255); text-decoration-thickness: initial; text-decoration-style: initial; text-decoration-color: initial; display: inline !important; float: none;&quot;&gt;&amp;lt;&amp;lt;Include&amp;gt;&amp;gt;&lt;/span&gt;&#xa;&#xa;" style="text;whiteSpace=wrap;html=1;rounded=1;" vertex="1" parent="1">
          <mxGeometry x="1085" y="1260" width="70" height="70" as="geometry" />
        </mxCell>
        <mxCell id="Z6TKPE_a9WBRSuv0R0ob-87" value="&#xa;&lt;span style=&quot;color: rgb(0, 0, 0); font-family: Helvetica; font-size: 11px; font-style: normal; font-variant-ligatures: normal; font-variant-caps: normal; font-weight: 400; letter-spacing: normal; orphans: 2; text-align: center; text-indent: 0px; text-transform: none; widows: 2; word-spacing: 0px; -webkit-text-stroke-width: 0px; white-space: nowrap; background-color: rgb(255, 255, 255); text-decoration-thickness: initial; text-decoration-style: initial; text-decoration-color: initial; display: inline !important; float: none;&quot;&gt;&amp;lt;&amp;lt;Include&amp;gt;&amp;gt;&lt;/span&gt;&#xa;&#xa;" style="text;whiteSpace=wrap;html=1;rounded=1;" vertex="1" parent="1">
          <mxGeometry x="1120" y="1295" width="70" height="70" as="geometry" />
        </mxCell>
        <mxCell id="Z6TKPE_a9WBRSuv0R0ob-88" value="&#xa;&lt;span style=&quot;color: rgb(0, 0, 0); font-family: Helvetica; font-size: 11px; font-style: normal; font-variant-ligatures: normal; font-variant-caps: normal; font-weight: 400; letter-spacing: normal; orphans: 2; text-align: center; text-indent: 0px; text-transform: none; widows: 2; word-spacing: 0px; -webkit-text-stroke-width: 0px; white-space: nowrap; background-color: rgb(255, 255, 255); text-decoration-thickness: initial; text-decoration-style: initial; text-decoration-color: initial; display: inline !important; float: none;&quot;&gt;&amp;lt;&amp;lt;Include&amp;gt;&amp;gt;&lt;/span&gt;&#xa;&#xa;" style="text;whiteSpace=wrap;html=1;rounded=1;" vertex="1" parent="1">
          <mxGeometry x="1155" y="1330" width="70" height="70" as="geometry" />
        </mxCell>
        <mxCell id="Z6TKPE_a9WBRSuv0R0ob-89" value="&#xa;&lt;span style=&quot;color: rgb(0, 0, 0); font-family: Helvetica; font-size: 11px; font-style: normal; font-variant-ligatures: normal; font-variant-caps: normal; font-weight: 400; letter-spacing: normal; orphans: 2; text-align: center; text-indent: 0px; text-transform: none; widows: 2; word-spacing: 0px; -webkit-text-stroke-width: 0px; white-space: nowrap; background-color: rgb(255, 255, 255); text-decoration-thickness: initial; text-decoration-style: initial; text-decoration-color: initial; display: inline !important; float: none;&quot;&gt;&amp;lt;&amp;lt;Include&amp;gt;&amp;gt;&lt;/span&gt;&#xa;&#xa;" style="text;whiteSpace=wrap;html=1;rounded=1;" vertex="1" parent="1">
          <mxGeometry x="1050" y="2135" width="70" height="70" as="geometry" />
        </mxCell>
        <mxCell id="Z6TKPE_a9WBRSuv0R0ob-90" value="&#xa;&lt;span style=&quot;color: rgb(0, 0, 0); font-family: Helvetica; font-size: 11px; font-style: normal; font-variant-ligatures: normal; font-variant-caps: normal; font-weight: 400; letter-spacing: normal; orphans: 2; text-align: center; text-indent: 0px; text-transform: none; widows: 2; word-spacing: 0px; -webkit-text-stroke-width: 0px; white-space: nowrap; background-color: rgb(255, 255, 255); text-decoration-thickness: initial; text-decoration-style: initial; text-decoration-color: initial; display: inline !important; float: none;&quot;&gt;&amp;lt;&amp;lt;Include&amp;gt;&amp;gt;&lt;/span&gt;&#xa;&#xa;" style="text;whiteSpace=wrap;html=1;rounded=1;" vertex="1" parent="1">
          <mxGeometry x="1015" y="2065" width="70" height="70" as="geometry" />
        </mxCell>
        <mxCell id="Z6TKPE_a9WBRSuv0R0ob-91" value="&#xa;&lt;span style=&quot;color: rgb(0, 0, 0); font-family: Helvetica; font-size: 11px; font-style: normal; font-variant-ligatures: normal; font-variant-caps: normal; font-weight: 400; letter-spacing: normal; orphans: 2; text-align: center; text-indent: 0px; text-transform: none; widows: 2; word-spacing: 0px; -webkit-text-stroke-width: 0px; white-space: nowrap; background-color: rgb(255, 255, 255); text-decoration-thickness: initial; text-decoration-style: initial; text-decoration-color: initial; display: inline !important; float: none;&quot;&gt;&amp;lt;&amp;lt;Include&amp;gt;&amp;gt;&lt;/span&gt;&#xa;&#xa;" style="text;whiteSpace=wrap;html=1;rounded=1;" vertex="1" parent="1">
          <mxGeometry x="1015" y="1995" width="70" height="70" as="geometry" />
        </mxCell>
        <mxCell id="Z6TKPE_a9WBRSuv0R0ob-92" value="&#xa;&lt;span style=&quot;color: rgb(0, 0, 0); font-family: Helvetica; font-size: 11px; font-style: normal; font-variant-ligatures: normal; font-variant-caps: normal; font-weight: 400; letter-spacing: normal; orphans: 2; text-align: center; text-indent: 0px; text-transform: none; widows: 2; word-spacing: 0px; -webkit-text-stroke-width: 0px; white-space: nowrap; background-color: rgb(255, 255, 255); text-decoration-thickness: initial; text-decoration-style: initial; text-decoration-color: initial; display: inline !important; float: none;&quot;&gt;&amp;lt;&amp;lt;Include&amp;gt;&amp;gt;&lt;/span&gt;&#xa;&#xa;" style="text;whiteSpace=wrap;html=1;rounded=1;" vertex="1" parent="1">
          <mxGeometry x="1050" y="1925" width="70" height="70" as="geometry" />
        </mxCell>
        <mxCell id="Z6TKPE_a9WBRSuv0R0ob-93" value="&#xa;&lt;span style=&quot;color: rgb(0, 0, 0); font-family: Helvetica; font-size: 11px; font-style: normal; font-variant-ligatures: normal; font-variant-caps: normal; font-weight: 400; letter-spacing: normal; orphans: 2; text-align: center; text-indent: 0px; text-transform: none; widows: 2; word-spacing: 0px; -webkit-text-stroke-width: 0px; white-space: nowrap; background-color: rgb(255, 255, 255); text-decoration-thickness: initial; text-decoration-style: initial; text-decoration-color: initial; display: inline !important; float: none;&quot;&gt;&amp;lt;&amp;lt;Include&amp;gt;&amp;gt;&lt;/span&gt;&#xa;&#xa;" style="text;whiteSpace=wrap;html=1;rounded=1;" vertex="1" parent="1">
          <mxGeometry x="1050" y="1855" width="70" height="70" as="geometry" />
        </mxCell>
        <mxCell id="Z6TKPE_a9WBRSuv0R0ob-94" value="&#xa;&lt;span style=&quot;color: rgb(0, 0, 0); font-family: Helvetica; font-size: 11px; font-style: normal; font-variant-ligatures: normal; font-variant-caps: normal; font-weight: 400; letter-spacing: normal; orphans: 2; text-align: center; text-indent: 0px; text-transform: none; widows: 2; word-spacing: 0px; -webkit-text-stroke-width: 0px; white-space: nowrap; background-color: rgb(255, 255, 255); text-decoration-thickness: initial; text-decoration-style: initial; text-decoration-color: initial; display: inline !important; float: none;&quot;&gt;&amp;lt;&amp;lt;Include&amp;gt;&amp;gt;&lt;/span&gt;&#xa;&#xa;" style="text;whiteSpace=wrap;html=1;rounded=1;rotation=0;" vertex="1" parent="1">
          <mxGeometry x="1050" y="1785" width="70" height="70" as="geometry" />
        </mxCell>
        <mxCell id="Z6TKPE_a9WBRSuv0R0ob-98" value="&#xa;&lt;span style=&quot;color: rgb(0, 0, 0); font-family: Helvetica; font-size: 11px; font-style: normal; font-variant-ligatures: normal; font-variant-caps: normal; font-weight: 400; letter-spacing: normal; orphans: 2; text-align: center; text-indent: 0px; text-transform: none; widows: 2; word-spacing: 0px; -webkit-text-stroke-width: 0px; white-space: nowrap; background-color: rgb(255, 255, 255); text-decoration-thickness: initial; text-decoration-style: initial; text-decoration-color: initial; display: inline !important; float: none;&quot;&gt;&amp;lt;&amp;lt;Include&amp;gt;&amp;gt;&lt;/span&gt;&#xa;&#xa;" style="text;whiteSpace=wrap;html=1;rounded=1;" vertex="1" parent="1">
          <mxGeometry x="1015" y="2310" width="70" height="70" as="geometry" />
        </mxCell>
        <mxCell id="Z6TKPE_a9WBRSuv0R0ob-99" value="&#xa;&lt;span style=&quot;color: rgb(0, 0, 0); font-family: Helvetica; font-size: 11px; font-style: normal; font-variant-ligatures: normal; font-variant-caps: normal; font-weight: 400; letter-spacing: normal; orphans: 2; text-align: center; text-indent: 0px; text-transform: none; widows: 2; word-spacing: 0px; -webkit-text-stroke-width: 0px; white-space: nowrap; background-color: rgb(255, 255, 255); text-decoration-thickness: initial; text-decoration-style: initial; text-decoration-color: initial; display: inline !important; float: none;&quot;&gt;&amp;lt;&amp;lt;Include&amp;gt;&amp;gt;&lt;/span&gt;&#xa;&#xa;" style="text;whiteSpace=wrap;html=1;rounded=1;" vertex="1" parent="1">
          <mxGeometry x="980" y="2240" width="70" height="70" as="geometry" />
        </mxCell>
        <mxCell id="Z6TKPE_a9WBRSuv0R0ob-100" value="&#xa;&lt;span style=&quot;color: rgb(0, 0, 0); font-family: Helvetica; font-size: 11px; font-style: normal; font-variant-ligatures: normal; font-variant-caps: normal; font-weight: 400; letter-spacing: normal; orphans: 2; text-align: center; text-indent: 0px; text-transform: none; widows: 2; word-spacing: 0px; -webkit-text-stroke-width: 0px; white-space: nowrap; background-color: rgb(255, 255, 255); text-decoration-thickness: initial; text-decoration-style: initial; text-decoration-color: initial; display: inline !important; float: none;&quot;&gt;&amp;lt;&amp;lt;Include&amp;gt;&amp;gt;&lt;/span&gt;&#xa;&#xa;" style="text;whiteSpace=wrap;html=1;rounded=1;" vertex="1" parent="1">
          <mxGeometry x="1015" y="2380" width="70" height="70" as="geometry" />
        </mxCell>
        <mxCell id="SR8djW1KOHRjo0UpwQZx-7" value="" style="rounded=1;orthogonalLoop=1;jettySize=auto;html=1;entryX=-0.015;entryY=0.356;entryDx=0;entryDy=0;dashed=1;endArrow=none;endFill=0;entryPerimeter=0;" edge="1" parent="1" source="f158t_sfv2qWzC_w8PwX-3" target="SR8djW1KOHRjo0UpwQZx-6">
          <mxGeometry relative="1" as="geometry">
            <mxPoint x="655" y="121" as="sourcePoint" />
            <mxPoint x="1260" y="228" as="targetPoint" />
          </mxGeometry>
        </mxCell>
        <mxCell id="SR8djW1KOHRjo0UpwQZx-8" value="&amp;lt;&amp;lt;Include&amp;gt;&amp;gt;" style="edgeLabel;html=1;align=center;verticalAlign=middle;resizable=0;points=[];rounded=1;" connectable="0" vertex="1" parent="SR8djW1KOHRjo0UpwQZx-7">
          <mxGeometry x="-0.1323" y="-1" relative="1" as="geometry">
            <mxPoint x="35" as="offset" />
          </mxGeometry>
        </mxCell>
        <mxCell id="SR8djW1KOHRjo0UpwQZx-6" value="Todos / Em Curso / Pendentes / Concluido" style="ellipse;whiteSpace=wrap;html=1;" vertex="1" parent="1">
          <mxGeometry x="840" y="140" width="120" height="80" as="geometry" />
        </mxCell>
        <mxCell id="1Kpg1wvoOpG3iVUdZpvH-8" value="" style="edgeStyle=none;rounded=1;orthogonalLoop=1;jettySize=auto;html=1;exitX=1;exitY=0.5;exitDx=0;exitDy=0;dashed=1;endArrow=none;endFill=0;" edge="1" parent="1" source="f158t_sfv2qWzC_w8PwX-52" target="1Kpg1wvoOpG3iVUdZpvH-7">
          <mxGeometry relative="1" as="geometry">
            <mxPoint x="725" y="28" as="sourcePoint" />
            <mxPoint x="1276" y="200" as="targetPoint" />
          </mxGeometry>
        </mxCell>
        <mxCell id="1Kpg1wvoOpG3iVUdZpvH-10" value="&amp;lt;&amp;lt;Extends&amp;gt;&amp;gt;" style="edgeLabel;html=1;align=center;verticalAlign=middle;resizable=0;points=[];" connectable="0" vertex="1" parent="1Kpg1wvoOpG3iVUdZpvH-8">
          <mxGeometry x="-0.032" y="-1" relative="1" as="geometry">
            <mxPoint as="offset" />
          </mxGeometry>
        </mxCell>
        <mxCell id="1Kpg1wvoOpG3iVUdZpvH-7" value="Dia / Semana / Mês&amp;nbsp;&lt;div&gt;/ Agenda&lt;/div&gt;" style="ellipse;whiteSpace=wrap;html=1;shadow=0;rounded=1;" vertex="1" parent="1">
          <mxGeometry x="805" y="35" width="115" height="70" as="geometry" />
        </mxCell>
        <mxCell id="1Kpg1wvoOpG3iVUdZpvH-11" value="Vencimento / Pagos" style="ellipse;whiteSpace=wrap;html=1;shadow=0;rounded=1;" vertex="1" parent="1">
          <mxGeometry x="840" y="525" width="115" height="70" as="geometry" />
        </mxCell>
        <mxCell id="1Kpg1wvoOpG3iVUdZpvH-13" style="rounded=0;orthogonalLoop=1;jettySize=auto;html=1;exitX=1;exitY=0.5;exitDx=0;exitDy=0;entryX=-0.001;entryY=0.447;entryDx=0;entryDy=0;entryPerimeter=0;dashed=1;endArrow=none;endFill=0;" edge="1" parent="1" source="1Kpg1wvoOpG3iVUdZpvH-11" target="Z6TKPE_a9WBRSuv0R0ob-53">
          <mxGeometry relative="1" as="geometry" />
        </mxCell>
        <mxCell id="1Kpg1wvoOpG3iVUdZpvH-15" value="&amp;lt;&amp;lt;Include&amp;gt;&amp;gt;" style="edgeLabel;html=1;align=center;verticalAlign=middle;resizable=0;points=[];" connectable="0" vertex="1" parent="1Kpg1wvoOpG3iVUdZpvH-13">
          <mxGeometry x="-0.5027" relative="1" as="geometry">
            <mxPoint as="offset" />
          </mxGeometry>
        </mxCell>
      </root>
    </mxGraphModel>
  </diagram>
</mxfile>
